<svg width="17" height="8" viewBox="0 0 17 8" fill="none" xmlns="http://www.w3.org/2000/svg">
<path d="M0.664061 3.35484H14.7275L12.3978 1.10245C12.1379 0.851095 12.1369 0.442611 12.3956 0.190062C12.6543 -0.0625185 13.0748 -0.0634537 13.3348 0.187869L16.8046 3.54271C16.8049 3.5429 16.805 3.54313 16.8052 3.54332C17.0645 3.79468 17.0653 4.20448 16.8053 4.45668C16.8051 4.45687 16.8049 4.4571 16.8047 4.45729L13.3348 7.81213C13.0749 8.06342 12.6544 8.06255 12.3957 7.80994C12.137 7.55739 12.138 7.14891 12.3979 6.89755L14.7275 4.64516H0.664061C0.2973 4.64516 0 4.35632 0 4C0 3.64368 0.2973 3.35484 0.664061 3.35484Z" fill="black"/>
</svg>
