<svg width="24" height="15" viewBox="0 0 24 15" fill="none" xmlns="http://www.w3.org/2000/svg"><path d="M16.9982 14.1219C15.047 14.1211 13.1899 13.2832 11.8984 11.8206C9.82782 14.1678 6.4224 14.7982 3.64887 13.3477C0.875337 11.8973 -0.549654 8.74076 0.196885 5.70119C0.943424 2.66162 3.66859 0.524401 6.7985 0.523864C7.86814 0.521316 8.92299 0.773809 9.87555 1.2604C9.13261 2.13149 8.55696 3.13232 8.17758 4.21251C6.80147 3.60302 5.18839 3.9709 4.21263 5.11678C3.23687 6.26266 3.1307 7.91375 3.95168 9.17516C4.77266 10.4366 6.32534 11.008 7.76817 10.5798C9.211 10.1515 10.2005 8.82554 10.2004 7.3205C10.2004 3.56551 13.2444 0.521484 16.9994 0.521484C20.7544 0.521484 23.7984 3.56551 23.7984 7.3205C23.7984 11.0755 20.7544 14.1195 16.9994 14.1195L16.9982 14.1219ZM13.5999 7.44187C13.6325 9.30747 15.1628 10.7981 17.0286 10.7817C18.8944 10.7654 20.3984 9.24826 20.3984 7.38237C20.3984 5.51648 18.8944 3.99932 17.0286 3.983C15.1628 3.96667 13.6325 5.45727 13.5999 7.32288V7.44187Z" fill="white"/></svg>
