<svg width="18" height="21" viewBox="0 0 18 21" fill="none" xmlns="http://www.w3.org/2000/svg"><path d="M16 20.3579H2C0.89543 20.3579 0 19.4625 0 18.3579V4.35791C0 3.25334 0.89543 2.35791 2 2.35791H4V0.35791H6V2.35791H12V0.35791H14V2.35791H16C17.1046 2.35791 18 3.25334 18 4.35791V18.3579C18 19.4625 17.1046 20.3579 16 20.3579ZM2 8.35791V18.3579H16V8.35791H2ZM2 4.35791V6.35791H16V4.35791H2ZM14 16.3579H12V14.3579H14V16.3579ZM10 16.3579H8V14.3579H10V16.3579ZM6 16.3579H4V14.3579H6V16.3579ZM14 12.3579H12V10.3579H14V12.3579ZM10 12.3579H8V10.3579H10V12.3579ZM6 12.3579H4V10.3579H6V12.3579Z" fill="#2E3A59"/></svg>
