<svg width="21" height="18" viewBox="0 0 21 18" fill="none" xmlns="http://www.w3.org/2000/svg">
<path d="M16.2822 17.5001H1.28223C1.01682 17.5027 0.761578 17.398 0.574556 17.2097C0.387533 17.0214 0.284622 16.7654 0.289227 16.5H0.282227V2.5C0.282227 1.39543 1.17766 0.5 2.28223 0.5H8.28223C8.50559 0.500213 8.72244 0.575198 8.89823 0.713L11.1822 2.5H16.2822C17.3868 2.5 18.2822 3.39543 18.2822 4.5V8.5H19.2822C19.6184 8.50004 19.932 8.66895 20.117 8.94959C20.302 9.23023 20.3337 9.58505 20.2012 9.894L17.2012 16.894C17.0436 17.2616 16.6822 17.5001 16.2822 17.5001ZM4.94223 10.5L2.79923 15.5H15.6232L17.7662 10.5H4.94223ZM2.28223 4.5V11.63L3.36323 9.106C3.52081 8.7384 3.88227 8.50004 4.28223 8.5H16.2822V4.5H2.28223Z" fill="white"/>
</svg>
