<svg width="14" height="19" viewBox="0 0 14 19" fill="none" xmlns="http://www.w3.org/2000/svg"><path d="M7 18.8597C5.73693 17.7823 4.56619 16.6012 3.5 15.3287C1.9 13.4177 8.83662e-07 10.5717 8.83662e-07 7.85967C-0.00141728 5.02722 1.70425 2.47306 4.32107 1.38907C6.93789 0.305074 9.95007 0.90491 11.952 2.90867C13.2685 4.21928 14.0059 6.00206 14 7.85967C14 10.5717 12.1 13.4177 10.5 15.3287C9.43382 16.6012 8.26307 17.7823 7 18.8597ZM7 2.85967C4.23995 2.86298 2.00331 5.09962 2 7.85967C2 9.02567 2.527 11.0447 5.035 14.0457C5.65314 14.7837 6.30902 15.4893 7 16.1597C7.69105 15.4901 8.34724 14.7855 8.966 14.0487C11.473 11.0437 12 9.02467 12 7.85967C11.9967 5.09962 9.76006 2.86298 7 2.85967ZM7 10.8597C5.34315 10.8597 4 9.51652 4 7.85967C4 6.20282 5.34315 4.85967 7 4.85967C8.65686 4.85967 10 6.20282 10 7.85967C10 8.65532 9.68393 9.41838 9.12132 9.98099C8.55871 10.5436 7.79565 10.8597 7 10.8597Z" fill="#2E3A59"/></svg>
