<svg width="21" height="21" viewBox="0 0 21 21" fill="none" xmlns="http://www.w3.org/2000/svg"><path d="M10.2399 0.69043C5.34681 0.689801 1.1757 4.23842 0.392282 9.06836C-0.391133 13.8983 2.44448 18.5834 7.08688 20.1294C7.58688 20.2194 7.76588 19.9124 7.76588 19.6484C7.76588 19.4114 7.75788 18.7834 7.75488 17.9484C4.97988 18.5484 4.39388 16.6104 4.39388 16.6104C4.2112 16.0074 3.81846 15.4898 3.28688 15.1514C2.38688 14.5324 3.35588 14.5464 3.35588 14.5464C3.99656 14.6343 4.56043 15.0139 4.88288 15.5744C5.15582 16.0707 5.61564 16.4374 6.16019 16.5931C6.70473 16.7487 7.2889 16.6805 7.78288 16.4034C7.8293 15.8974 8.05442 15.4245 8.41788 15.0694C6.20388 14.8184 3.87588 13.9624 3.87588 10.1394C3.8636 9.15063 4.23078 8.19473 4.90188 7.46843C4.59823 6.60774 4.63399 5.66368 5.00188 4.82843C5.00188 4.82843 5.83888 4.55943 7.74388 5.84943C9.37773 5.40144 11.102 5.40144 12.7359 5.84943C14.6419 4.55843 15.4779 4.82843 15.4779 4.82843C15.8475 5.66329 15.8833 6.608 15.5779 7.46843C16.2514 8.19466 16.6183 9.15307 16.6019 10.1434C16.6019 13.9764 14.2719 14.8184 12.0499 15.0654C12.5292 15.5555 12.775 16.2278 12.7249 16.9114C12.7249 18.2454 12.7129 19.3214 12.7129 19.6484C12.7129 19.9154 12.8909 20.2254 13.3999 20.1274C18.0404 18.5788 20.8729 13.8934 20.0879 9.06475C19.3029 4.23608 15.1319 0.689311 10.2399 0.69043Z" fill="#2E3A59"/></svg>
