<svg width="20" height="19" viewBox="0 0 20 19" fill="none" xmlns="http://www.w3.org/2000/svg">
<path d="M7 0.293457C4.23858 0.293457 2 2.53203 2 5.29346C2 8.05488 4.23858 10.2935 7 10.2935C9.76142 10.2935 12 8.05488 12 5.29346C12 2.53203 9.76142 0.293457 7 0.293457ZM4 5.29346C4 3.6366 5.34315 2.29346 7 2.29346C8.65685 2.29346 10 3.6366 10 5.29346C10 6.95031 8.65685 8.29346 7 8.29346C5.34315 8.29346 4 6.95031 4 5.29346Z" fill="#F7FDFF"/>
<path d="M14.9084 5.51174C14.6271 5.3683 14.3158 5.29352 14 5.29352V3.29352C14.6316 3.29352 15.2542 3.44302 15.8169 3.72991C15.8789 3.7615 15.9399 3.79467 16 3.82935C16.4854 4.10959 16.9072 4.48915 17.2373 4.94401C17.6083 5.45518 17.8529 6.04693 17.9512 6.67082C18.0496 7.29472 17.9987 7.93303 17.8029 8.53351C17.6071 9.13399 17.2719 9.67957 16.8247 10.1256C16.3775 10.5716 15.8311 10.9054 15.2301 11.0996C14.6953 11.2725 14.1308 11.3304 13.5735 11.2707C13.5046 11.2633 13.4357 11.2541 13.367 11.2431C12.7438 11.1432 12.1531 10.8972 11.6431 10.5254L11.6421 10.5246L12.821 8.90902C13.0761 9.09517 13.3717 9.21823 13.6835 9.2682C13.9953 9.31817 14.3145 9.29359 14.615 9.19648C14.9155 9.09937 15.1887 8.93248 15.4123 8.70948C15.6359 8.48648 15.8035 8.2137 15.9014 7.91347C15.9993 7.61323 16.0247 7.29409 15.9756 6.98215C15.9264 6.67021 15.8041 6.37434 15.6186 6.11877C15.4331 5.86319 15.1898 5.65517 14.9084 5.51174Z" fill="#F7FDFF"/>
<path d="M17.9981 18.2935C17.9981 17.7684 17.8947 17.2485 17.6938 16.7634C17.4928 16.2784 17.1983 15.8376 16.8271 15.4664C16.4558 15.0951 16.0151 14.8006 15.53 14.5997C15.0449 14.3988 14.525 14.2954 14 14.2954V12.2935C14.6821 12.2935 15.3584 12.4098 16 12.6366C16.0996 12.6718 16.1983 12.7097 16.2961 12.7502C17.0241 13.0517 17.6855 13.4937 18.2426 14.0508C18.7998 14.608 19.2417 15.2694 19.5433 15.9974C19.5838 16.0951 19.6217 16.1939 19.6569 16.2935C19.8837 16.9351 20 17.6114 20 18.2935H17.9981Z" fill="#F7FDFF"/>
<path d="M14 18.2935H12C12 15.532 9.76142 13.2935 7 13.2935C4.23858 13.2935 2 15.532 2 18.2935H0C0 14.4275 3.13401 11.2935 7 11.2935C10.866 11.2935 14 14.4275 14 18.2935Z" fill="#F7FDFF"/>
</svg>
