<svg width="16" height="20" viewBox="0 0 16 20" fill="none" xmlns="http://www.w3.org/2000/svg">
<path d="M15 19.2933H1C0.447715 19.2933 0 18.8456 0 18.2933V8.70732C0 8.44212 0.105451 8.18781 0.293 8.00032L7.293 1.00032C7.48057 0.812541 7.73509 0.707031 8.0005 0.707031C8.26591 0.707031 8.52043 0.812541 8.708 1.00032L15.708 8.00032C15.8957 8.1876 16.0009 8.44214 16 8.70732V18.2933C16 18.8456 15.5523 19.2933 15 19.2933ZM6 12.2933H10V17.2933H14V9.12132L8 3.12132L2 9.12132V17.2933H6V12.2933Z" fill="white"/>
</svg>
