<svg width="19" height="19" viewBox="0 0 19 19" fill="none" xmlns="http://www.w3.org/2000/svg"><path d="M10.4028 18.6904H6.40283V6.69043H10.4028V8.69043C11.2555 7.60568 12.5485 6.959 13.9278 6.92743C16.4084 6.9412 18.41 8.95981 18.4029 11.4404V18.6904H14.4028V11.9404C14.2429 10.8231 13.2846 9.99401 12.1558 9.99643C11.6621 10.012 11.1961 10.2282 10.8653 10.5951C10.5345 10.9619 10.3675 11.4477 10.4028 11.9404V18.6904ZM4.40283 18.6904H0.402832V6.69043H4.40283V18.6904ZM2.40283 4.69043C1.29826 4.69043 0.402832 3.795 0.402832 2.69043C0.402832 1.58586 1.29826 0.69043 2.40283 0.69043C3.5074 0.69043 4.40283 1.58586 4.40283 2.69043C4.40283 3.22086 4.19212 3.72957 3.81705 4.10464C3.44197 4.47972 2.93326 4.69043 2.40283 4.69043Z" fill="#2E3A59"/></svg>
