<svg width="20" height="19" viewBox="0 0 20 19" fill="none" xmlns="http://www.w3.org/2000/svg"><path d="M10 18.1574C9.35502 17.5854 8.62602 16.9904 7.85502 16.3574H7.84502C5.13002 14.1374 2.05302 11.6254 0.694023 8.61537C0.24754 7.6571 0.0109268 6.6145 1.1406e-05 5.55737C-0.00297039 4.10686 0.578794 2.71636 1.61383 1.70014C2.64887 0.683923 4.04981 0.127769 5.50002 0.157374C6.68065 0.159239 7.83586 0.500455 8.82802 1.14037C9.26399 1.42334 9.65844 1.76563 10 2.15737C10.3435 1.76717 10.7381 1.42508 11.173 1.14037C12.1648 0.500329 13.3197 0.159093 14.5 0.157374C15.9502 0.127769 17.3512 0.683923 18.3862 1.70014C19.4213 2.71636 20.003 4.10686 20 5.55737C19.9898 6.61619 19.7532 7.66057 19.306 8.62037C17.947 11.6304 14.871 14.1414 12.156 16.3574L12.146 16.3654C11.374 16.9944 10.646 17.5894 10.001 18.1654L10 18.1574ZM5.50002 2.15737C4.56853 2.14572 3.67009 2.50222 3.00002 3.14937C2.35441 3.78354 1.99358 4.65242 1.99994 5.55737C2.01135 6.32788 2.18585 7.08723 2.51202 7.78537C3.15353 9.08408 4.01913 10.2594 5.06902 11.2574C6.06002 12.2574 7.20002 13.2254 8.18602 14.0394C8.45902 14.2644 8.73702 14.4914 9.01502 14.7184L9.19002 14.8614C9.45702 15.0794 9.73302 15.3054 10 15.5274L10.013 15.5154L10.019 15.5104H10.025L10.034 15.5034H10.039H10.044L10.062 15.4884L10.103 15.4554L10.11 15.4494L10.121 15.4414H10.127L10.136 15.4334L10.8 14.8884L10.974 14.7454C11.255 14.5164 11.533 14.2894 11.806 14.0644C12.792 13.2504 13.933 12.2834 14.924 11.2784C15.9741 10.2809 16.8397 9.10589 17.481 7.80737C17.8131 7.10318 17.9901 6.33588 18.0001 5.55737C18.0042 4.65521 17.6435 3.78967 17 3.15737C16.3312 2.50729 15.4326 2.14786 14.5 2.15737C13.3619 2.1477 12.274 2.62474 11.51 3.46837L10 5.20837L8.49002 3.46837C7.72609 2.62474 6.6381 2.1477 5.50002 2.15737Z" fill="white"/></svg>
