<svg width="20" height="21" viewBox="0 0 20 21" fill="none" xmlns="http://www.w3.org/2000/svg">
<path d="M10 20.2935C4.47715 20.2935 0 15.8163 0 10.2935C0 4.77061 4.47715 0.293457 10 0.293457C15.5228 0.293457 20 4.77061 20 10.2935C19.9939 15.8138 15.5203 20.2874 10 20.2935ZM2 10.4655C2.04732 14.8667 5.64111 18.403 10.0425 18.3795C14.444 18.3557 17.9995 14.781 17.9995 10.3795C17.9995 5.97796 14.444 2.40323 10.0425 2.37945C5.64111 2.35591 2.04732 5.89222 2 10.2935V10.4655ZM8 14.7935V5.79346L14 10.2935L8 14.7935Z" fill="#F7FDFF"/>
</svg>
