<svg width="17" height="21" viewBox="0 0 17 21" fill="none" xmlns="http://www.w3.org/2000/svg"><path d="M8.64746 20.5C7.54289 20.5 6.64746 19.6046 6.64746 18.5H10.6475C10.6475 19.6046 9.75203 20.5 8.64746 20.5ZM16.6475 17.5H0.647461V15.5L2.64746 14.5V9C2.64746 5.538 4.06846 3.293 6.64746 2.68V0.5H10.6475V2.68C13.2265 3.292 14.6475 5.536 14.6475 9V14.5L16.6475 15.5V17.5ZM8.64746 4.25C7.42713 4.1712 6.25025 4.71728 5.52246 5.7C4.90001 6.68456 4.5946 7.83638 4.64746 9V15.5H12.6475V9C12.7003 7.83639 12.3949 6.68458 11.7725 5.7C11.0447 4.71728 9.86779 4.1712 8.64746 4.25Z" fill="white"/></svg>
