<svg width="18" height="17" viewBox="0 0 18 17" fill="none" xmlns="http://www.w3.org/2000/svg"><path d="M6.01363 5.31826C5.02993 6.15412 4.66944 7.67851 5.51884 8.90144C6.31369 10.0458 7.31494 11.0469 8.45907 11.8414C9.68205 12.6906 11.2064 12.33 12.0422 11.3463L12.0515 11.3506C13.119 11.8451 14.2529 12.1841 15.4167 12.3568V14.7765L15.4157 14.7765L15.4131 14.7765C8.10305 14.7869 2.57552 9.19506 2.58334 1.94649V1.9432H5.00275L5.00291 1.94427C5.17566 3.10796 5.51447 4.24086 6.00904 5.30835L6.01363 5.31826ZM15.4157 16.6098H16.3333C16.8396 16.6098 17.25 16.1994 17.25 15.6932V11.5661C17.25 11.1118 16.9173 10.7261 16.4679 10.6594L15.6849 10.5432C14.6946 10.3962 13.7305 10.1079 12.822 9.68706L12.1319 9.36737C11.732 9.18212 11.2569 9.30769 11.0007 9.66635L10.6883 10.1038C10.4145 10.4871 9.89171 10.6042 9.50476 10.3355C8.54016 9.66567 7.69473 8.82042 7.0246 7.8556C6.75583 7.46863 6.87292 6.94579 7.25635 6.67197L7.69354 6.35976C8.05225 6.10359 8.17785 5.62839 7.99255 5.22844L7.67252 4.53766C7.25168 3.62931 6.96337 2.6653 6.81637 1.67506L6.70012 0.891926C6.63341 0.442576 6.24766 0.109863 5.79339 0.109863H1.66668C1.16042 0.109863 0.750009 0.520269 0.750009 1.02653V1.94451C0.7411 10.2004 7.08438 16.6217 15.4157 16.6098Z" fill="#2E3A59"/></svg>
