<svg width="18" height="19" viewBox="0 0 18 19" fill="none" xmlns="http://www.w3.org/2000/svg">
<path d="M16 18.2935H2C0.89543 18.2935 0 17.398 0 16.2935V2.29346C0 1.18889 0.89543 0.293457 2 0.293457H16C17.1046 0.293457 18 1.18889 18 2.29346V16.2935C18 17.398 17.1046 18.2935 16 18.2935ZM2 2.29346V16.2935H16V2.29346H2ZM15 14.2935H3L6 10.2935L7 11.2935L10 7.29346L15 14.2935ZM5.5 8.29346C4.67157 8.29346 4 7.62188 4 6.79346C4 5.96503 4.67157 5.29346 5.5 5.29346C6.32843 5.29346 7 5.96503 7 6.79346C7 7.62188 6.32843 8.29346 5.5 8.29346Z" fill="#F7FDFF"/>
</svg>
