<svg width="14" height="21" viewBox="0 0 14 21" fill="none" xmlns="http://www.w3.org/2000/svg">
<path d="M10 20.2935H4V18.2935H10V20.2935ZM10 17.2935H4L3.777 15.2935C3.65703 14.6319 3.45863 13.987 3.186 13.3725C2.832 12.8725 2.463 12.4455 2.106 12.0285C0.794114 10.7988 0.0346512 9.09123 0 7.29346C0 3.42746 3.13401 0.293457 7 0.293457C10.866 0.293457 14 3.42746 14 7.29346C13.9593 9.08026 13.2057 10.7766 11.907 12.0045L11.89 12.0245C11.534 12.4415 11.166 12.8735 10.819 13.3685C10.5466 13.9847 10.3476 14.6308 10.226 15.2935L10 17.2935ZM7 2.29346C4.23995 2.29676 2.00331 4.5334 2 7.29346C2 8.83746 2.644 9.58646 3.618 10.7215C3.988 11.1535 4.408 11.6415 4.818 12.2125C5.31557 13.1793 5.65552 14.2194 5.825 15.2935H8.176C8.34985 14.2225 8.68925 13.1851 9.182 12.2185C9.582 11.6475 10.001 11.1565 10.37 10.7245L10.385 10.7065C11.357 9.56646 12 8.81346 12 7.29346C11.9967 4.5334 9.76005 2.29676 7 2.29346Z" fill="#F7FDFF"/>
</svg>
