<svg width="23" height="13" viewBox="0 0 23 13" fill="none" xmlns="http://www.w3.org/2000/svg"><path d="M22.2404 11.6103C22.1813 11.5113 21.8155 10.7164 20.0554 9.08283C18.2128 7.3722 18.4603 7.64997 20.6797 4.69212C22.0314 2.89074 22.5718 1.79066 22.4027 1.32037C22.2418 0.872088 21.2476 0.990347 21.2476 0.990347L17.9419 1.0096C17.9419 1.0096 17.6971 0.976596 17.5142 1.08523C17.3368 1.19249 17.2227 1.44001 17.2227 1.44001C17.2227 1.44001 16.6988 2.83436 16.0002 4.0197C14.5275 6.52101 13.9376 6.65302 13.6969 6.49763C13.1373 6.13598 13.2775 5.04277 13.2775 4.26722C13.2775 1.84291 13.6447 0.83221 12.5611 0.570941C12.2008 0.484309 11.9368 0.426555 11.0169 0.416929C9.83702 0.404553 8.83732 0.421054 8.27216 0.69745C7.89538 0.881714 7.60523 1.29287 7.78262 1.31625C8.00126 1.34512 8.4963 1.44963 8.75894 1.80716C9.09859 2.26782 9.08622 3.30464 9.08622 3.30464C9.08622 3.30464 9.28148 6.15798 8.63106 6.51276C8.18415 6.75615 7.57223 6.25974 6.25901 3.98945C5.58658 2.82748 5.0778 1.54176 5.0778 1.54176C5.0778 1.54176 4.98016 1.3025 4.80553 1.17461C4.59376 1.01922 4.29674 0.969721 4.29674 0.969721L1.15326 0.988972C1.15326 0.988972 0.681598 1.00272 0.508336 1.20761C0.354324 1.3905 0.49596 1.76728 0.49596 1.76728C0.49596 1.76728 2.95739 7.52483 5.74335 10.4277C8.29966 13.0885 11.2011 12.9139 11.2011 12.9139H12.5157C12.5157 12.9139 12.9131 12.8699 13.1153 12.6512C13.3023 12.4505 13.2954 12.0737 13.2954 12.0737C13.2954 12.0737 13.2693 10.3094 14.0888 10.0495C14.896 9.79375 15.9328 11.7546 17.0316 12.5096C17.8621 13.0802 18.4933 12.9551 18.4933 12.9551L21.4319 12.9139C21.4319 12.9139 22.9692 12.819 22.2404 11.6103Z" fill="#2E3A59"/></svg>
